<svg width="127" height="35" viewBox="0 0 127 35" fill="none" xmlns="http://www.w3.org/2000/svg">
<path d="M32.4544 11.376H26.9492C24.3462 11.376 21.8959 12.5958 20.3208 14.6692L15.3456 21.2194C14.663 20.7357 14.0477 20.1451 13.5284 19.4625L0.25317 1.97364C-0.362124 1.16257 0.213761 0 1.23141 0H19.6877C22.2907 0 24.7448 1.21978 26.32 3.29322L32.4544 11.376Z" fill="#A230ED"/>
<path d="M46.3841 13.3496L33.1089 30.8391C31.5369 32.9125 29.0834 34.1285 26.4766 34.1285H8.02418C7.00718 34.1285 6.43129 32.969 7.04277 32.1587L15.3467 21.22C16.7375 22.2084 18.4155 22.7525 20.1616 22.7525H38.6147C39.6317 22.7525 40.2115 21.5931 39.5962 20.7827L32.4548 11.376H45.4065C46.4235 11.376 46.9994 12.5391 46.3841 13.3496Z" fill="#6E47FF"/>
<path d="M38.6129 22.7524H20.1597C18.4136 22.7524 16.7349 22.2083 15.3447 21.2199L20.3199 14.6697C21.895 12.5962 24.3453 11.3765 26.9483 11.3765H32.4535L39.5943 20.7826C40.2095 21.593 39.6298 22.7524 38.6129 22.7524Z" fill="#6B00D7"/>
<path d="M66.6654 22.7526L63.9588 18.8727C63.845 18.8854 63.6747 18.8917 63.4478 18.8917H60.4571V22.7526H57.9966V9.50342H63.4478C64.5957 9.50342 65.5962 9.69281 66.4473 10.071C67.299 10.4499 67.9519 10.992 68.4064 11.6989C68.8602 12.4057 69.0871 13.2447 69.0871 14.216C69.0871 15.2133 68.8443 16.0708 68.3587 16.7897C67.8724 17.5092 67.1757 18.0457 66.2674 18.3985L69.3146 22.7519L66.6654 22.7526ZM65.7761 12.2665C65.2206 11.812 64.407 11.5851 63.3346 11.5851H60.4577V16.866H63.3346C64.407 16.866 65.2206 16.6358 65.7761 16.175C66.3316 15.7142 66.6088 15.0614 66.6088 14.216C66.6088 13.3712 66.331 12.721 65.7761 12.2665Z" fill="#293A51"/>
<path d="M82.3132 17.7559L76.5029 19.6862L75.1973 22.7526H72.6611L78.6228 9.50342H81.0458L87.0265 22.7526H84.4522L82.3132 17.7559ZM82.3132 17.7559L79.8152 11.964L77.3362 17.7559H82.3132Z" fill="#293A51"/>
<path d="M99.0547 10.071C99.9065 10.4499 100.559 10.992 101.014 11.6989C101.468 12.4057 101.695 13.2447 101.695 14.2161C101.695 15.1751 101.468 16.011 101.014 16.7236C100.559 17.4368 99.9065 17.9821 99.0547 18.361C98.203 18.7392 97.2031 18.9286 96.0552 18.9286H93.0646V22.7519H90.604V9.50342H96.0552C97.2031 9.50342 98.2036 9.69281 99.0547 10.071ZM98.3829 16.1655C98.9384 15.711 99.2156 15.0614 99.2156 14.2161C99.2156 13.3706 98.9377 12.721 98.3829 12.2665C97.8273 11.812 97.0137 11.5851 95.9413 11.5851H93.0646V16.8469H95.9413C97.0137 16.8475 97.828 16.62 98.3829 16.1655Z" fill="#293A51"/>
<path d="M106.048 9.50342H108.509V22.7526H106.048V9.50342Z" fill="#293A51"/>
<path d="M113.979 9.50342H119.77C121.183 9.50342 122.439 9.77796 123.536 10.3265C124.634 10.8757 125.485 11.6513 126.092 12.6542C126.698 13.6573 127 14.8154 127 16.1273C127 17.44 126.697 18.5974 126.092 19.6005C125.485 20.6035 124.634 21.3796 123.536 21.9282C122.439 22.4774 121.183 22.7513 119.77 22.7513H113.979V9.50342ZM119.656 20.6702C120.628 20.6702 121.483 20.4847 122.221 20.1121C122.959 19.7403 123.527 19.2102 123.925 18.5224C124.322 17.8346 124.521 17.0369 124.521 16.128C124.521 15.2196 124.322 14.4219 123.925 13.7335C123.527 13.0458 122.959 12.5163 122.221 12.1438C121.483 11.772 120.628 11.5851 119.656 11.5851H116.439V20.6702H119.656Z" fill="#293A51"/>
<path d="M57.9971 26.2959H58.6263V30.7021H57.9971V26.2959Z" fill="#293A51"/>
<path d="M66.8847 26.2979V30.7041H66.3686L63.725 27.4185V30.7041H63.0957V26.2979H63.6119L66.2555 29.5834V26.2979H66.8847Z" fill="#293A51"/>
<path d="M75.1431 26.2979V30.7041H74.6269L71.9833 27.4185V30.7041H71.354V26.2979H71.8702L74.5138 29.5834V26.2979H75.1431Z" fill="#293A51"/>
<path d="M80.3983 30.4607C80.0417 30.2656 79.7614 29.9961 79.558 29.6522C79.3546 29.3083 79.2529 28.9244 79.2529 28.5005C79.2529 28.0765 79.3546 27.6925 79.558 27.3487C79.7614 27.0048 80.0417 26.7346 80.3983 26.5401C80.7549 26.345 81.156 26.2471 81.6003 26.2471C82.0407 26.2471 82.4393 26.345 82.7959 26.5401C83.1525 26.7353 83.4315 27.0041 83.6331 27.3461C83.8345 27.6881 83.9349 28.0733 83.9349 28.5011C83.9349 28.9288 83.8345 29.314 83.6331 29.656C83.4315 29.998 83.1525 30.2662 82.7959 30.4613C82.4393 30.6565 82.0407 30.7543 81.6003 30.7543C81.1554 30.7537 80.7549 30.6558 80.3983 30.4607ZM82.4723 29.9732C82.7304 29.8264 82.9339 29.6236 83.0826 29.3656C83.2313 29.1075 83.3063 28.8189 83.3063 28.5005C83.3063 28.1819 83.2319 27.8927 83.0826 27.6347C82.9339 27.3766 82.7298 27.1745 82.4723 27.027C82.215 26.8796 81.9239 26.8065 81.6003 26.8065C81.2768 26.8065 80.9843 26.8796 80.7225 27.027C80.46 27.1738 80.2546 27.3766 80.1059 27.6347C79.9572 27.8927 79.8822 28.1813 79.8822 28.5005C79.8822 28.8195 79.9566 29.1081 80.1059 29.3656C80.2546 29.6236 80.4606 29.8264 80.7225 29.9732C80.9843 30.12 81.2774 30.1937 81.6003 30.1937C81.9232 30.1937 82.2143 30.12 82.4723 29.9732Z" fill="#293A51"/>
<path d="M91.7342 26.2979L89.8018 30.7041H89.1789L87.2402 26.2979H87.9204L89.5063 29.9172L91.1048 26.2979H91.7342Z" fill="#293A51"/>
<path d="M98.1106 29.6025H95.7689L95.2845 30.7041H94.6362L96.6314 26.2979H97.2544L99.256 30.7041H98.5949L98.1106 29.6025ZM97.89 29.0985L96.9397 26.9399L95.9895 29.0985H97.89Z" fill="#293A51"/>
<path d="M103.712 26.8452H102.201V26.2974H105.845V26.8452H104.335V30.7036H103.711L103.712 26.8452Z" fill="#293A51"/>
<path d="M109.679 26.2979H110.307V30.7041H109.679V26.2979Z" fill="#293A51"/>
<path d="M115.564 30.4607C115.208 30.2656 114.928 29.9961 114.724 29.6522C114.521 29.3083 114.418 28.9244 114.418 28.5005C114.418 28.0765 114.521 27.6925 114.724 27.3487C114.928 27.0048 115.208 26.7346 115.564 26.5401C115.921 26.345 116.321 26.2471 116.766 26.2471C117.207 26.2471 117.606 26.345 117.962 26.5401C118.319 26.7353 118.598 27.0041 118.8 27.3461C119.002 27.6881 119.102 28.0733 119.102 28.5011C119.102 28.9288 119.002 29.314 118.8 29.656C118.598 29.998 118.319 30.2662 117.962 30.4613C117.606 30.6565 117.207 30.7543 116.766 30.7543C116.321 30.7537 115.921 30.6558 115.564 30.4607ZM117.638 29.9732C117.896 29.8264 118.099 29.6236 118.248 29.3656C118.397 29.1075 118.471 28.8189 118.471 28.5005C118.471 28.1819 118.397 27.8927 118.248 27.6347C118.099 27.3766 117.896 27.1745 117.638 27.027C117.38 26.8802 117.09 26.8065 116.765 26.8065C116.443 26.8065 116.15 26.8796 115.888 27.027C115.625 27.1745 115.42 27.3766 115.271 27.6347C115.122 27.8927 115.048 28.1813 115.048 28.5005C115.048 28.8195 115.122 29.1081 115.271 29.3656C115.42 29.6236 115.625 29.8264 115.888 29.9732C116.151 30.12 116.443 30.1937 116.765 30.1937C117.09 30.1931 117.38 30.12 117.638 29.9732Z" fill="#293A51"/>
<path d="M127 26.2979V30.7041H126.484L123.841 27.4185V30.7041H123.211V26.2979H123.728L126.372 29.5834V26.2979H127Z" fill="#293A51"/>
</svg>
